<?xml version="1.0" encoding="UTF-8" standalone="no"?>
<!DOCTYPE svg PUBLIC "-//W3C//DTD SVG 1.1//EN" "http://www.w3.org/Graphics/SVG/1.1/DTD/svg11.dtd">
<!-- Created with Vectornator (http://vectornator.io/) -->
<svg height="100%" stroke-miterlimit="10" style="fill-rule:nonzero;clip-rule:evenodd;stroke-linecap:round;stroke-linejoin:round;" version="1.1" viewBox="0 0 48 48" width="100%" xml:space="preserve" xmlns="http://www.w3.org/2000/svg" xmlns:vectornator="http://vectornator.io" xmlns:xlink="http://www.w3.org/1999/xlink">
<defs/>
<g id="Layer-14" vectornator:layerName="Layer 14">
<path d="M32.544 34.0323C32.9484 34.0324 33.313 34.276 33.4677 34.6496C33.6225 35.0233 33.537 35.4533 33.251 35.7393L24.7071 44.2833C24.3159 44.6695 23.6862 44.6675 23.2975 44.2788C22.9088 43.89 22.9068 43.2604 23.2931 42.8692L31.837 34.3253C32.0243 34.1374 32.2788 34.032 32.544 34.0323Z" fill="#000000" fill-rule="nonzero" opacity="1" stroke="none" vectornator:layerName="path"/>
<path d="M24.0001 3.42389C24.2654 3.42373 24.5198 3.52904 24.7074 3.71661C24.8949 3.90418 25.0002 4.15862 25.0001 4.42389L25.0001 43.5762C25.0001 43.9807 24.7565 44.3453 24.3828 44.5C24.0091 44.6548 23.5791 44.5692 23.2931 44.2832L14.7491 35.7393C14.3586 35.3488 14.3586 34.7157 14.7491 34.3253C15.1396 33.9348 15.7727 33.9348 16.1632 34.3253L23.0001 41.1622L23.0001 4.42389C22.9999 4.15862 23.1052 3.90418 23.2928 3.71661C23.4804 3.52904 23.7348 3.42373 24.0001 3.42389Z" fill="#000000" fill-rule="nonzero" opacity="1" stroke="none" vectornator:layerName="path"/>
</g>
</svg>
