<?xml version="1.0" encoding="utf-8"?>
<!-- Generator: Adobe Illustrator 27.5.0, SVG Export Plug-In . SVG Version: 6.00 Build 0)  -->
<svg version="1.1" id="Glyph" xmlns="http://www.w3.org/2000/svg" xmlns:xlink="http://www.w3.org/1999/xlink" x="0px" y="0px"
	 viewBox="0 0 64 64" style="enable-background:new 0 0 64 64;" xml:space="preserve">
<style type="text/css">
	.st0{fill:#FFFFFF;}
</style>
<path class="st0" d="M8.1,35.9h39.3L37.1,46.8c-0.9,1-1.3,2.4-1,3.7c0.2,1.5,1.3,2.8,2.8,3.3c0.3,0.1,0.6,0.1,0.9,0.1
	c1.3-0.1,2.5-0.7,3.4-1.7l15.2-16.3c2.1-2.3,2.1-5.8,0-8L43,11.4c-1.5-1.6-4.1-1.7-5.7-0.2C36.5,12,36,13.1,36,14.3
	c0,1,0.5,2,1.2,2.8l10.1,10.8H8.1c-2.2,0-4,1.8-4,4S5.8,35.9,8.1,35.9C8,35.9,8,35.9,8.1,35.9z"/>
</svg>
